PathFileType	4	(x/y/z)	S01_PSF_T09.trc
DataRate	CameraRate	NumFrames	NumMarkers	Units	OrigDataRate	OrigDataStartFrame	OrigNumFrames
240	240	4	51	mm	240	202	402
Frame#	Time	Sternum			R.Acromium			L.Acromium			Top.Head			R.ASIS			L.ASIS			R.PSIS			L.PSIS			R.Great.Tro			L.Great.Tro			R.Iliac.Crest			L.Iliac.Crest			V.Sacral			R.Thigh.Upper.Post			R.Thigh.Lower.Ant			R.Thigh.Lower.Post			R.Thigh.Upper.Ant			R.Knee.Lat			R.Knee.Med			R.Shank.Upper.Post			R.Shank.Lower.Ant			R.Shank.Lower.Post			R.Shank.Upper.Ant			R.Ankle.Lat			R.Ankle.Med			R.Heel.Upper			R.Heel.Med			R.Heel.Lat			R.Toe.Lat			R.Toe.Med			R.Toe.Tip			L.Thigh.Upper.Post			L.Thigh.Lower.Ant			L.Thigh.Lower.Post			L.Thigh.Upper.Ant			L.Knee.Lat			L.Knee.Med			L.Shank.Upper.Post			L.Shank.Lower.Ant			L.Shank.Lower.Post			L.Shank.Upper.Ant			L.Ankle.Lat			L.Ankle.Med			L.Heel.Upper			L.Heel.Med			L.Heel.Lat			L.Toe.Lat			L.Toe.Med			L.Toe.Tip			Cervical.Spine			Back			
		X1	Y1	Z1	X2	Y2	Z2	X3	Y3	Z3	X4	Y4	Z4	X5	Y5	Z5	X6	Y6	Z6	X7	Y7	Z7	X8	Y8	Z8	X9	Y9	Z9	X10	Y10	Z10	X11	Y11	Z11	X12	Y12	Z12	X13	Y13	Z13	X14	Y14	Z14	X15	Y15	Z15	X16	Y16	Z16	X17	Y17	Z17	X18	Y18	Z18	X19	Y19	Z19	X20	Y20	Z20	X21	Y21	Z21	X22	Y22	Z22	X23	Y23	Z23	X24	Y24	Z24	X25	Y25	Z25	X26	Y26	Z26	X27	Y27	Z27	X28	Y28	Z28	X29	Y29	Z29	X30	Y30	Z30	X31	Y31	Z31	X32	Y32	Z32	X33	Y33	Z33	X34	Y34	Z34	X35	Y35	Z35	X36	Y36	Z36	X37	Y37	Z37	X38	Y38	Z38	X39	Y39	Z39	X40	Y40	Z40	X41	Y41	Z41	X42	Y42	Z42	X43	Y43	Z43	X44	Y44	Z44	X45	Y45	Z45	X46	Y46	Z46	X47	Y47	Z47	X48	Y48	Z48	X49	Y49	Z49	X50	Y50	Z50	X51	Y51	Z51	

202	0.8375	-275.67	1302.4	335.38	-375.3	1541.4	535.91	-431.59	1573.5	213.37	-393.88	1873.4	387.14	-313.54	1044.4	488.44	-323.17	1057	223.51	-555.15	1080.7	399.6	-560.38	1078.4	296.75	-391.93	984.56	564.79	-422.63	1002	141.89	-400.28	1137	557.9	-438.95	1138.6	156.3	-570.02	1042.8	346.09	-419.92	678.06	524.63	-353.65	605.58	491.86	-421.9	591.95	500.18	-347.62	693.13	517.49	-407.56	526.64	490.23	-403.1	535.65	345.92	-483.43	373.94	502.77	-432.23	287.46	456.17	-495.64	305.38	487.27	-423.69	357.59	477.52	-515.52	104.43	438.95	-482.45	113.42	347.17	-586.54	77.901	377.18	-570.43	48.64	347.66	-576.2	47.209	412.45	-386.08	35.016	474.24	-353.31	41.88	349.82	-290.51	56.836	406.03	-346.74	720.88	142.13	-243.62	684.34	126.4	-303.89	640.63	153.07	-294.79	764.86	117.5	-239.36	578.54	133.35	-185.39	583.3	272.1	-328.16	465.11	133.15	-292.16	361.33	150.46	-349.13	390.91	140.79	-271.28	434.41	137.92	-421.28	191.71	187.79	-371.79	193.63	276.89	-488.05	183.63	251.25	-476.68	157.11	283.31	-494.1	156.41	223.46	-314.22	78.68	146.89	-259.62	81.721	258.29	-210.02	74.036	193.01	-487.21	1610.1	393.11	-570.41	1300	398.01
203	0.84167	-270.47	1301.8	335.53	-369.97	1541.1	535.96	-426.16	1573	213.36	-388.67	1873	386.82	-308.57	1043.8	488.69	-318.14	1056.5	223.65	-550.13	1080.4	399.66	-555.33	1078	296.81	-387.19	984.23	564.95	-417.66	1001.5	142.01	-395.4	1136.5	558.04	-433.9	1138	156.39	-564.99	1042.4	346.15	-417.41	678.11	524.71	-351.74	605.24	491.87	-420	591.99	500.36	-345.03	692.73	517.45	-406.37	526.46	490.4	-401.81	535.49	346	-482.82	374.04	502.87	-431.83	287.41	456.31	-495.2	305.51	487.31	-423.11	357.52	477.68	-515.46	104.47	438.93	-482.43	113.47	347.16	-586.5	77.973	377.12	-570.35	48.708	347.64	-576.16	47.286	412.41	-386.08	34.967	474.25	-353.29	41.894	349.84	-290.5	56.76	406.07	-340.71	720.66	142.64	-237.42	684.44	127.17	-297.62	640.55	153.74	-288.87	764.77	118	-232.6	578.56	134.19	-179.07	583.81	272.89	-318.95	462.8	133.47	-280.51	359.93	150.81	-338.14	388.11	140.98	-261.37	433.49	138.42	-405.45	187.07	187.5	-356.2	190.06	276.73	-472.16	177.16	250.79	-460.12	150.87	282.86	-477.28	149.83	222.9	-295.36	76.882	146.67	-241.05	81.168	258.2	-191.15	74.894	193	-481.83	1609.8	393.12	-565.24	1299.7	398.1
204	0.84583	-265.27	1301.3	335.66	-364.63	1540.7	535.99	-420.69	1572.4	213.34	-383.45	1872.6	386.5	-303.57	1043.2	488.9	-313.12	1055.9	223.77	-545.1	1080.1	399.73	-550.28	1077.6	296.88	-382.43	983.86	565.12	-412.71	1001	142.13	-390.48	1135.9	558.18	-428.86	1137.4	156.47	-559.95	1042	346.21	-414.88	678.15	524.79	-349.82	604.88	491.86	-418.06	592.02	500.54	-342.44	692.3	517.38	-405.17	526.26	490.58	-400.52	535.33	346.08	-482.2	374.13	502.96	-431.43	287.36	456.45	-494.75	305.64	487.35	-422.53	357.44	477.84	-515.41	104.51	438.91	-482.41	113.51	347.15	-586.47	78.041	377.06	-570.27	48.776	347.63	-576.13	47.359	412.37	-386.08	34.911	474.26	-353.28	41.911	349.86	-290.47	56.685	406.13	-334.79	720.33	143.2	-231.33	684.42	127.96	-291.46	640.36	154.48	-283.05	764.56	118.53	-225.97	578.48	135.08	-172.87	584.21	273.72	-309.77	460.45	133.81	-268.88	358.54	151.15	-327.14	385.31	141.18	-251.51	432.55	138.93	-389.49	182.51	187.17	-340.52	186.57	276.54	-456.08	170.76	250.27	-443.38	144.72	282.35	-460.29	143.35	222.29	-276.44	75.249	146.42	-222.47	80.753	258.08	-172.3	75.911	192.96	-476.44	1609.4	393.1	-560.07	1299.3	398.17
205	0.85	-260.07	1300.6	335.78	-359.28	1540.3	536	-415.17	1571.8	213.3	-378.21	1872.1	386.17	-298.55	1042.6	489.08	-308.1	1055.2	223.87	-540.07	1079.7	399.81	-545.22	1077.1	296.96	-377.64	983.47	565.28	-407.77	1000.4	142.26	-385.52	1135.4	558.3	-423.81	1136.8	156.55	-554.92	1041.6	346.29	-412.31	678.16	524.87	-347.88	604.5	491.82	-416.1	592.04	500.73	-339.84	691.85	517.29	-403.94	526.05	490.76	-399.22	535.17	346.16	-481.57	374.22	503.07	-431.02	287.3	456.6	-494.3	305.76	487.4	-421.93	357.36	478	-515.35	104.55	438.89	-482.4	113.56	347.15	-586.44	78.106	377	-570.19	48.844	347.63	-576.09	47.429	412.33	-386.08	34.848	474.26	-353.27	41.931	349.88	-290.44	56.611	406.18	-328.98	719.91	143.81	-225.38	684.27	128.78	-285.43	640.07	155.27	-277.34	764.23	119.08	-219.45	578.3	136	-166.77	584.49	274.6	-300.6	458.06	134.18	-257.28	357.19	151.49	-316.13	382.51	141.39	-241.69	431.6	139.45	-373.4	178.03	186.8	-324.74	183.15	276.31	-439.82	164.44	249.71	-426.48	138.67	281.79	-443.14	136.97	221.64	-257.48	73.796	146.13	-203.88	80.489	257.91	-153.48	77.098	192.9	-471.04	1608.9	393.06	-554.9	1298.9	398.2
